<?xml version="1.0" standalone="no"?><!DOCTYPE svg PUBLIC "-//W3C//DTD SVG 1.1//EN" "http://www.w3.org/Graphics/SVG/1.1/DTD/svg11.dtd"><svg t="1632555412623" class="icon" viewBox="0 0 1024 1024" version="1.1" xmlns="http://www.w3.org/2000/svg" p-id="1649" xmlns:xlink="http://www.w3.org/1999/xlink" width="200" height="200"><defs><style type="text/css"></style></defs><path d="M80.365338 596.355328L778.969003 25.30885 582.111613 8.023811l337.378356 609.937816 23.846953 391.474127-594.733384 2.080607s-80.023329-514.710054-116.834061 4.321259c-34.570078-2.240653-149.163486-8.64252-149.163485-8.642519L80.365338 596.355328z m475.818716 233.508075l-2.240653 86.585242 218.463689-12.963779 2.240653-97.308368-218.463689 23.686905z" p-id="1650"></path><path d="M85.966971 601.956961c32.809565-26.887839 65.779177-53.775677 98.588742-80.663516 74.101603-60.497637 148.043159-120.995274 222.144762-181.652957 78.262816-64.018663 156.525632-128.037327 234.948495-192.055991l136.839893-111.872614c1.92056-1.600467 4.001166-3.200933 5.921727-4.8014 5.921726-4.8014 0.48014-13.123826-5.601633-13.603966L581.951566 0.021478c-6.24182-0.48014-9.6028 7.2021-6.882006 12.0035 25.127325 45.453251 50.254651 90.746455 75.381976 136.199706 49.614464 89.786175 99.228928 179.412304 148.843393 269.19848 35.530358 64.17871 71.060716 128.517467 106.591074 192.696177 2.240653 3.84112 4.32126 7.842286 6.561913 11.683406-2.560747-4.481306-1.120327-4.32126-0.800233 0 0.320093 4.481306 0.48014 8.962613 0.800233 13.443919 2.4007 40.011665 4.8014 80.023329 7.362147 120.034994 5.121493 83.384309 10.082939 166.928665 15.204432 250.312974 0 1.280373 0.160047 2.4007 0.160047 3.681073l8.002333-8.002333c-58.096937 0.160047-116.353921 0.48014-174.450858 0.640187-101.469582 0.320093-202.779116 0.800233-304.248698 1.120327l-116.033827 0.48014c2.560747 1.92056 5.121493 3.84112 7.682239 5.921726-7.842286-50.574744-17.765179-101.309535-31.209098-150.763952-4.161213-15.044386-8.64252-29.928725-14.4042-44.492971-4.32126-10.723126-9.12266-21.926392-16.964945-30.568912-6.081773-6.72196-15.684573-10.242986-23.846953-4.961447-10.242986 6.401866-14.724293 20.325926-18.245319 31.049052-7.842286 24.006999-11.523359 49.454418-14.884339 74.421696-6.081773 43.692738-9.762846 87.705569-12.963779 131.7184l8.002333-8.002333c-49.774511-3.040887-99.549022-5.76168-149.163486-8.642519l8.002333 8.002333c-0.320093-72.181043-0.800233-144.362086-1.120327-216.703176L88.367671 596.195282c0-10.242986-16.004666-10.403033-16.004666 0 0.320093 72.181043 0.800233 144.362086 1.120327 216.703175l0.96028 194.296644c0 4.481306 3.681073 7.68224 8.002333 8.002333 49.774511 2.88084 99.549022 5.601633 149.163486 8.642519 4.641353 0.320093 7.68224-3.84112 8.002333-8.002333 3.040887-42.572411 6.561913-85.144822 12.323592-127.557186 3.36098-24.327092 7.2021-48.974278 14.244153-72.501137 2.240653-7.2021 3.84112-11.843453 7.2021-17.765179 0.640187-0.96028 1.280373-2.080607 1.92056-3.040886 1.120327-1.760513-0.800233 0.800233 0.960279-1.120327 0.640187-0.640187 1.280373-1.280373 1.92056-1.760513-2.080607 1.760513 0.160047 0 0.96028-0.320094-2.560747 1.280373-0.640187 0.320093 0.320094 0.160047-2.88084 0.48014-0.800233 0.160047 0.160046 0.160047-3.040887-0.320093-0.800233 0 0.160047 0.320093-2.720793-0.96028-0.160047 0 0.640187 0.48014 1.600467 0.96028-1.280373-1.280373 0.640186 0.48014l1.92056 1.92056c1.44042 1.600467 0.96028 1.120327 0.96028 1.120326 0.800233 0.96028 1.44042 2.080607 2.240653 3.200934 7.042053 11.043219 10.403033 21.126159 14.724293 33.449751 5.441586 15.844619 9.762846 31.849285 13.764013 48.013998 8.002333 32.009332 14.564246 64.498803 20.485972 96.988275 2.080607 11.843453 4.161213 23.686905 6.081773 35.530358 0.48014 3.521026 4.481306 5.921726 7.68224 5.921727 58.096937-0.160047 116.353921-0.48014 174.450857-0.640187 101.469582-0.320093 202.779116-0.800233 304.248698-1.120327l116.033828-0.48014c4.161213 0 8.322426-3.681073 8.002333-8.002333-4.481306-73.78151-8.962613-147.402973-13.44392-221.184482-2.720793-44.973111-5.441586-90.106269-8.162379-135.07938-0.640187-10.883173-1.280373-21.606299-1.92056-32.489471-0.320093-4.001166-1.44042-7.042053-3.36098-10.56308-31.209098-56.49647-62.578244-112.992941-93.787342-169.489411-49.934557-90.266315-100.029162-180.692678-149.963719-270.958993l-90.266315-163.247592c-0.48014-0.800233-0.96028-1.600467-1.280374-2.4007-2.240653 4.001166-4.641353 8.002333-6.882006 12.003499l196.85739 17.28504c-1.92056-4.481306-3.84112-9.12266-5.601633-13.603966-32.809565 26.887839-65.779177 53.775677-98.588742 80.663516-74.101603 60.497637-148.043159 120.995274-222.144762 181.652957-78.262816 64.018663-156.525632 128.037327-234.948495 192.05599L81.325618 585.792249c-1.92056 1.600467-4.001166 3.200933-5.921726 4.8014-8.64252 6.561913 2.720793 17.925226 10.563079 11.363312z" p-id="1651"></path><path d="M548.181721 829.863403c-0.800233 28.808399-1.44042 57.616797-2.240653 86.585242-0.160047 4.161213 3.681073 8.322426 8.002333 8.002333 72.661183-4.32126 145.322366-8.64252 217.823503-12.963779h0.48014c4.481306-0.320093 7.842286-3.521026 8.002332-8.002333 0.800233-32.489472 1.44042-64.818897 2.240654-97.308368 0.160047-4.001166-3.681073-8.482473-8.002333-8.002333-72.661183 7.842286-145.322366 15.844619-217.823503 23.686905h-0.48014c-10.082939 1.120327-10.242986 17.124992 0 16.004666 72.661183-7.842286 145.322366-15.844619 217.823503-23.686905h0.48014l-8.002333-8.002333c-0.800233 32.489472-1.44042 64.818897-2.240653 97.308368l8.002333-8.002333c-72.661183 4.32126-145.322366 8.64252-217.823503 12.963779h-0.48014l8.002333 8.002333c0.800233-28.808399 1.44042-57.616797 2.240653-86.585242 0.320093-10.242986-15.684573-10.242986-16.004666 0z" p-id="1652"></path></svg>